HIERARCHY
ROOT hip
{
	OFFSET 0.000000 0.000000 0.000000
	CHANNELS 6 Xposition Yposition Zposition Xrotation Zrotation Yrotation 
	JOINT abdomen
	{
		OFFSET 0.000000 3.422050 0.000000
		CHANNELS 3 Xrotation Zrotation Yrotation 
		JOINT chest
		{
			OFFSET 0.000000 8.486693 -0.6844110
			CHANNELS 3 Xrotation Zrotation Yrotation 
			JOINT neck
			{
				OFFSET 0.000000 10.26616 -0.2737640
				CHANNELS 3 Xrotation Zrotation Yrotation 
				JOINT head
				{
					OFFSET 0.000000 3.148285 0.000000
					CHANNELS 3 Xrotation Zrotation Yrotation 
					End Site
					{
						OFFSET 0.000000 3.148289 0.000000
					}
				}
			}
			JOINT lCollar
			{
				OFFSET 3.422053 6.707223 -0.8212930
				CHANNELS 3 Yrotation Zrotation Xrotation 
				JOINT lShldr
				{
					OFFSET 3.285171 0.000000 0.000000
					CHANNELS 3 Zrotation Yrotation Xrotation 
					JOINT lForeArm
					{
						OFFSET 10.12928 0.000000 0.000000
						CHANNELS 3 Yrotation Zrotation Xrotation 
						JOINT lHand
						{
							OFFSET 8.486692 0.000000 0.000000
							CHANNELS 3 Zrotation Yrotation Xrotation 
							End Site
							{
								OFFSET 4.106464 0.000000 0.000000
							}
						}
					}
				}
			}
			JOINT rCollar
			{
				OFFSET -3.558935 6.707223 -0.8212930
				CHANNELS 3 Yrotation Zrotation Xrotation 
				JOINT rShldr
				{
					OFFSET -3.148289 0.000000 0.000000
					CHANNELS 3 Zrotation Yrotation Xrotation 
					JOINT rForeArm
					{
						OFFSET -10.26616 0.000000 0.000000
						CHANNELS 3 Yrotation Zrotation Xrotation 
						JOINT rHand
						{
							OFFSET -8.349810 0.000000 0.000000
							CHANNELS 3 Zrotation Yrotation Xrotation 
							End Site
							{
								OFFSET -4.106464 0.000000 0.000000
							}
						}
					}
				}
			}
		}
	}
	JOINT lThigh
	{
		OFFSET 5.338403 -1.642589 1.368821
		CHANNELS 3 Xrotation Zrotation Yrotation 
		JOINT lShin
		{
			OFFSET -2.053232 -20.12167 0.000000
			CHANNELS 3 Xrotation Zrotation Yrotation 
			JOINT lFoot
			{
				OFFSET 0.000000 -19.30038 -1.231939
				CHANNELS 3 Xrotation Yrotation Zrotation 
				End Site
				{
					OFFSET 0.000000 -2.463878 4.653993
				}
			}
		}
	}
	JOINT rThigh
	{
		OFFSET -5.338403 -1.642589 1.368821
		CHANNELS 3 Xrotation Zrotation Yrotation 
		JOINT rShin
		{
			OFFSET 2.053232 -20.12167 0.000000
			CHANNELS 3 Xrotation Zrotation Yrotation 
			JOINT rFoot
			{
				OFFSET 0.000000 -19.30038 -1.231939
				CHANNELS 3 Xrotation Yrotation Zrotation 
				End Site
				{
					OFFSET 0.000000 -2.463878 4.653993
				}
			}
		}
	}
}
MOTION
Frames:	19
Frame Time:	0.06666667
0.000000 43.52852 0.000000 0.000000 0.000000 0.000000 0.000000 0.000000 0.000000 0.000000 0.000000 0.000000 0.000000 0.000000 0.000000 0.000000 0.000000 0.000000 0.000000 0.000000 0.000000 0.000000 0.000000 0.000000 0.000000 0.000000 0.000000 0.000000 0.000000 0.000000 0.000000 0.000000 0.000000 0.000000 0.000000 0.000000 0.000000 0.000000 0.000000 0.000000 0.000000 0.000000 0.000000 0.000000 0.000000 0.000000 0.000000 0.000000 0.000000 0.000000 0.000000 0.000000 0.000000 0.000000 0.000000 0.000000 0.000000 0.000000 0.000000 0.000000 
0.000000 43.52852 0.000000 0.000000 0.000000 0.000000 0.6647089 1.898606e-19 0.01432148 0.9407412 0.007160744 0.03868438 0.01033447 0.001202002 -0.01682803 -0.002404004 0.000000 0.0520222 -1.485381 -24.00000 0.000000 -51.43587 -2.228071 0.000000 -7.000000 0.000000 0.000000 -13.00000 0.000000 0.000000 0.5403607 30.00000 0.000000 41.61123 2.737169 7.596708e-19 10.63762 0.000000 0.1432148 11.86661 0.000000 0.07695562 0.000000 0.000000 0.000000 0.000000 0.000000 0.000000 0.000000 0.000000 0.000000 0.000000 0.000000 0.000000 0.000000 0.000000 0.000000 0.000000 0.000000 0.000000 
0.000000 42.68932 0.000000 -0.05966244 0.000000 0.000000 1.519438 4.339967e-19 0.03273705 2.150412 0.01636853 0.08842748 0.04123183 0.004795674 -0.06713944 -0.009591348 0.000000 0.2075550 -3.395388 -22.55807 0.000000 -49.93304 -5.093082 0.000000 -6.531116 0.000000 0.000000 -12.12922 0.000000 0.000000 1.235195 28.05571 0.000000 41.00372 6.256813 1.736509e-18 13.49339 0.000000 0.3273705 11.69169 0.000000 0.1589116 -1.504000 0.000000 0.000000 5.406526 0.000000 0.000000 -2.880288 0.000000 0.000000 -2.910652 0.000000 0.000000 6.631361 0.000000 0.000000 -7.211227 0.000000 0.000000 
0.000000 40.39656 0.000000 -0.2384915 0.000000 0.000000 3.854616 1.100993e-18 0.08304961 5.455314 0.04152482 0.2243289 0.09237505 0.01074414 -0.1504180 -0.02148829 0.000000 0.4650026 -8.613654 -18.61863 0.000000 -45.82720 -12.92048 0.000000 -5.250093 0.000000 0.000000 -9.750174 0.000000 0.000000 3.133527 22.74378 0.000000 39.34396 15.87271 4.405296e-18 21.29555 0.000000 0.8304961 11.16883 0.000000 0.4038815 -5.613027 0.000000 0.000000 20.17751 0.000000 0.000000 -10.74942 0.000000 0.000000 -10.86275 0.000000 0.000000 24.74868 0.000000 0.000000 -19.23097 0.000000 0.000000 
0.000000 37.26455 0.000000 -0.5360131 0.000000 0.000000 7.044569 2.012138e-18 0.1517787 9.969953 0.07588939 0.4099761 0.1632394 0.01898637 -0.2658092 -0.03797274 0.000000 0.8217233 -15.74203 -13.23718 0.000000 -40.21845 -23.61304 0.000000 -3.500162 0.000000 0.000000 -6.500301 0.000000 0.000000 5.726730 15.48746 0.000000 37.07665 29.00845 8.050972e-18 31.95363 0.000000 1.517787 10.30377 0.000000 0.8091818 -11.22614 0.000000 0.000000 40.35531 0.000000 0.000000 -21.49900 0.000000 0.000000 -21.72565 0.000000 0.000000 49.49771 0.000000 0.000000 -28.84645 0.000000 0.000000 
0.000000 35.17617 0.000000 -0.9514382 0.000000 0.000000 10.23460 2.923306e-18 0.2205095 14.48470 0.1102548 0.5956280 0.2530977 0.02943779 -0.4121291 -0.05887558 0.000000 1.274057 -22.87058 -7.855600 0.000000 -34.60957 -34.30587 0.000000 -1.750187 0.000000 0.000000 -3.250348 0.000000 0.000000 8.319998 8.230964 0.000000 34.80930 42.14451 1.169674e-17 42.61198 0.000000 2.205096 9.105991 0.000000 1.370372 -16.83938 0.000000 0.000000 60.53362 0.000000 0.000000 -32.24885 0.000000 0.000000 -32.58882 0.000000 0.000000 74.24735 0.000000 0.000000 -20.46199 0.000000 0.000000 
0.000000 33.08809 0.000000 -1.483665 0.000000 0.000000 12.56999 3.590363e-18 0.2708268 17.78991 0.1354134 0.7315420 0.3610279 0.04199116 -0.5878763 -0.08398232 0.000000 1.817362 -28.08933 -3.915793 0.000000 -30.50335 -42.13400 0.000000 -0.4690462 0.000000 0.000000 -0.8710858 0.000000 0.000000 10.21851 2.918545 0.000000 33.14938 51.76130 1.436577e-17 50.41486 0.000000 2.708268 7.588605 0.000000 2.081304 -20.94879 0.000000 0.000000 75.30597 0.000000 0.000000 -40.11872 0.000000 0.000000 -40.54165 0.000000 0.000000 92.36635 0.000000 0.000000 -9.982093 0.000000 0.000000 
0.000000 31.00000 0.000000 -2.131283 0.000000 0.000000 13.42502 3.834584e-18 0.2892487 19.00000 0.1446244 0.7813023 0.4859227 0.05651767 -0.7912475 -0.1130353 0.000000 2.446064 -30.00000 -2.473366 0.000000 -29.00000 -45.00000 0.000000 0.000000 0.000000 0.000000 0.000000 0.000000 0.000000 10.91358 0.9735835 0.000000 32.54166 55.28216 1.534295e-17 53.27162 0.000000 2.892487 5.768239 0.000000 2.934189 -22.45331 0.000000 0.000000 80.71436 0.000000 0.000000 -43.00000 0.000000 0.000000 -43.45331 0.000000 0.000000 99.00000 0.000000 0.000000 -3.693076 0.000000 0.000000 
0.000000 29.37500 0.000000 -2.892574 0.000000 0.000000 14.41477 3.969643e-18 0.2994365 19.03806 0.1497183 0.8088209 0.6265005 0.07286827 -1.020156 -0.1457365 0.000000 3.153712 -29.87511 -2.497064 0.000000 -28.98419 -44.73053 0.002004276 -0.002004276 0.000000 -0.01725511 0.2694710 0.000000 0.1283195 10.82413 0.9829116 0.000000 32.60400 54.91565 1.548995e-17 53.22769 0.000000 2.920201 3.664838 0.000000 3.919684 -24.50006 0.000000 0.000000 82.84297 0.000000 0.000000 -41.75351 0.000000 0.000000 -42.88638 -0.8372764 0.07611603 100.3701 0.000000 0.000000 -4.998729 0.000000 0.000000 
0.000000 27.75000 0.000000 -3.765520 0.000000 0.000000 17.23337 4.354262e-18 0.3284489 19.14644 0.1642245 0.8871875 0.7813188 0.09087519 -1.272253 -0.1817504 0.000000 3.933045 -29.50257 -2.567752 0.000000 -28.93703 -43.92673 0.007982813 -0.007982813 0.000000 -0.06872524 1.073274 0.000000 0.5110826 10.55729 1.010736 0.000000 32.78993 53.82238 1.592845e-17 53.09663 0.000000 3.002867 1.301443 0.000000 5.026991 -30.32874 0.000000 0.000000 88.90474 0.000000 0.000000 -38.20382 0.000000 0.000000 -41.27189 -3.221645 0.2928768 104.2718 0.000000 0.000000 -8.716928 0.000000 0.000000 
0.000000 26.12500 0.000000 -4.747806 0.000000 0.000000 21.45171 4.929888e-18 0.3718692 19.30864 0.1859346 1.004472 0.9487892 0.1103537 -1.544952 -0.2207074 0.000000 4.776067 -28.88876 -2.684220 0.000000 -28.85932 -42.60234 0.01783332 -0.01783332 0.000000 -0.1535297 2.397655 0.000000 1.141741 10.11765 1.056581 0.000000 33.09629 52.02105 1.665093e-17 52.88070 0.000000 3.139071 -1.296051 0.000000 6.243979 -39.05203 0.000000 0.000000 97.97689 0.000000 0.000000 -32.89128 0.000000 0.000000 -38.85563 -6.790129 0.6172845 110.1111 0.000000 0.000000 -14.28164 0.000000 0.000000 
0.000000 24.50000 0.000000 -5.836827 0.000000 0.000000 26.42765 5.608893e-18 0.4230877 19.49998 0.2115438 1.142820 1.127193 0.1311038 -1.835454 -0.2622077 0.000000 5.674127 -28.04418 -2.844477 0.000000 -28.75239 -40.78004 0.03138727 -0.03138727 0.000000 -0.2702177 4.219956 0.000000 2.009503 9.512716 1.119663 0.000000 33.51783 49.54249 1.764505e-17 52.58359 0.000000 3.326484 -4.099188 0.000000 7.557316 -49.34197 0.000000 0.000000 108.6783 0.000000 0.000000 -26.62464 0.000000 0.000000 -36.00542 -10.99949 0.9999537 116.9992 0.000000 0.000000 -20.84574 0.000000 0.000000 
0.000000 22.01291 0.000000 -7.029696 0.000000 0.000000 31.40368 6.287911e-18 0.4743070 19.69131 0.2371535 1.281171 1.314700 0.1529128 -2.140779 -0.3058256 0.000000 6.618010 -26.98327 -3.045779 0.000000 -28.61808 -38.49100 0.04841275 -0.04841275 0.000000 -0.4167927 6.509000 0.000000 3.099524 8.752842 1.198901 0.000000 34.04734 46.42910 1.889378e-17 52.21038 0.000000 3.561898 -7.077259 0.000000 8.952614 -59.63210 0.000000 0.000000 119.3800 0.000000 0.000000 -20.35789 0.000000 0.000000 -33.15516 -15.20893 1.382630 123.8873 0.000000 0.000000 -27.40997 0.000000 0.000000 
0.000000 19.90413 0.000000 -8.323250 0.000000 0.000000 35.62228 6.863572e-18 0.5177301 19.85353 0.2588651 1.398463 1.509387 0.1755567 -2.457795 -0.3511135 0.000000 7.598032 -25.72420 -3.284684 0.000000 -28.45868 -35.77438 0.06861848 -0.06861848 0.000000 -0.5907468 9.225620 0.000000 4.393153 7.851028 1.292940 0.000000 34.67575 42.73416 2.037577e-17 51.76746 0.000000 3.841285 -10.19764 0.000000 10.41459 -68.35593 0.000000 0.000000 128.4527 0.000000 0.000000 -15.04502 0.000000 0.000000 -30.73875 -18.77763 1.707058 129.7270 0.000000 0.000000 -32.97503 0.000000 0.000000 
0.000000 18.49499 0.000000 -9.714057 0.000000 0.000000 38.44127 7.248245e-18 0.5467465 19.96192 0.2733732 1.476841 1.709254 0.1988034 -2.783247 -0.3976068 0.000000 8.604137 -24.28850 -3.557103 0.000000 -28.27692 -32.67666 0.09165876 -0.09165876 0.000000 -0.7891040 12.32334 0.000000 5.868257 6.822705 1.400172 0.000000 35.39232 38.52087 2.206566e-17 51.26241 0.000000 4.159867 -13.42613 0.000000 11.92721 -74.18542 0.000000 0.000000 134.5153 0.000000 0.000000 -11.49483 0.000000 0.000000 -29.12404 -21.16233 1.923849 133.6293 0.000000 0.000000 -36.69374 0.000000 0.000000 
0.000000 18.00000 0.000000 -11.19843 0.000000 0.000000 39.43148 7.383367e-18 0.5569390 20.00000 0.2784695 1.504372 1.912253 0.2224141 -3.113798 -0.4448282 0.000000 9.626001 -22.70073 -3.858375 0.000000 -28.07591 -29.25084 0.1171394 -0.1171394 0.000000 -1.008470 15.74916 0.000000 7.499599 5.685465 1.518760 0.000000 36.18479 33.86133 2.393454e-17 50.70385 0.000000 4.512191 -16.72738 0.000000 13.47393 -76.23312 0.000000 0.000000 136.6449 0.000000 0.000000 -10.24776 0.000000 0.000000 -28.55685 -22.00000 2.000000 135.0000 0.000000 0.000000 -38.00000 0.000000 0.000000 
0.000000 17.25731 0.000000 -12.77244 0.000000 0.000000 38.97252 7.431792e-18 0.5605918 19.87961 0.2802959 1.514239 2.116299 0.2461467 -3.446054 -0.4922935 0.000000 10.65314 -20.98807 -4.183347 0.000000 -27.85909 -25.55554 0.1446244 -0.1446244 0.000000 -1.245093 19.44446 0.000000 9.259267 4.458766 1.646678 0.000000 37.03959 28.83525 2.595042e-17 50.10136 0.000000 4.892231 -20.06522 0.000000 15.03778 -80.41190 0.000000 0.000000 135.7590 0.000000 0.000000 -10.10312 0.000000 0.000000 -33.64598 -21.66066 3.098941 135.7795 0.000000 0.000000 -37.34525 0.000000 0.000000 
0.000000 15.17633 0.000000 -14.43190 0.000000 0.000000 37.61328 7.575205e-18 0.5714096 19.52308 0.2857048 1.543459 2.319299 0.2697577 -3.776608 -0.5395154 0.000000 11.67501 -19.17981 -4.526458 0.000000 -27.63017 -21.65397 0.1736435 -0.1736435 0.000000 -1.494923 23.34603 0.000000 11.11716 3.163596 1.781736 0.000000 37.94211 23.52864 2.807883e-17 49.46525 0.000000 5.293483 -23.40306 0.000000 16.60165 -90.50050 0.000000 0.000000 133.1356 0.000000 0.000000 -9.674759 0.000000 0.000000 -47.90546 -20.70985 6.178117 137.9636 0.000000 0.000000 -35.40618 0.000000 0.000000 
0.000000 12.16920 0.000000 -16.17241 0.000000 0.000000 35.40599 7.808096e-18 0.5889770 18.94410 0.2944885 1.590911 2.519171 0.2930048 -4.102067 -0.5860096 0.000000 12.68114 -17.30689 -4.881837 0.000000 -27.39305 -17.61290 0.2037002 -0.2037002 0.000000 -1.753686 27.38710 0.000000 13.04148 1.822115 1.921623 0.000000 38.87690 18.03227 3.028334e-17 48.80639 0.000000 5.709082 -26.70436 0.000000 18.14838 -100.5895 0.000000 0.000000 128.8752 0.000000 0.000000 -8.979137 0.000000 0.000000 -68.51120 -19.33588 10.62770 141.1198 0.000000 0.000000 -32.25729 0.000000 0.000000 
